Coordinates
version=1
nRows=25
nColumns=23
inDegrees=yes

Units are S.I. units (second, meters, Newtons, ...)
If the header above contains a line with 'inDegrees', this indicates whether rotational values are in degrees (yes) or radians (no).

endheader
time	pelvis_tilt	pelvis_list	pelvis_rotation	pelvis_tx	pelvis_ty	pelvis_tz	hip_flexion_r	hip_adduction_r	hip_rotation_r	knee_angle_r	knee_angle_r_beta	ankle_angle_r	subtalar_angle_r	mtp_angle_r	hip_flexion_l	hip_adduction_l	hip_rotation_l	knee_angle_l	knee_angle_l_beta	ankle_angle_l	subtalar_angle_l	mtp_angle_l
      0.00000000	    -13.71322120	      0.24489238	      2.05498329	      2.10868790	      1.03216245	      1.01377597	     -3.32868781	      0.45061157	     -7.21255251	     43.54790805	      0.76005438	     -3.92677704	     -7.98519809	      0.00000000	     33.10453706	      3.46833560	     -4.30895353	     13.05977453	      0.22793607	     14.18095890	      4.51145228	      0.00000000
      0.00666667	    -13.34387072	      0.16658663	      2.20275020	      2.10780712	      1.02808472	      1.01350782	     -2.21439045	      0.42692649	     -6.70750557	     48.20362189	      0.84131191	     -3.96463382	     -8.31998887	      0.00000000	     33.21295134	      3.46886087	     -3.90464982	     15.28542273	      0.26678095	     12.37291612	      3.41703914	      0.00000000
      0.01333333	    -13.12332424	      0.11046715	      2.36234311	      2.10677999	      1.02337928	      1.01327777	     -1.02511718	      0.41336702	     -6.24746798	     52.71814550	      0.92010521	     -3.89325350	     -8.34468987	      0.00000000	     33.56770666	      3.50433156	     -3.47071536	     17.69795797	      0.30888764	     10.71323800	      2.14716696	      0.00000000
      0.02000000	    -12.86668642	      0.09320023	      2.54265237	      2.10569738	      1.01837620	      1.01309458	      0.05245371	      0.38484437	     -5.86607484	     57.06287399	      0.99593503	     -3.78977329	     -8.15793888	      0.00000000	     33.93989748	      3.56960449	     -3.10717194	     20.25993499	      0.35360257	      9.30942318	      0.90071288	      0.00000000
      0.02666667	    -12.60062112	      0.09799506	      2.79096798	      2.10449416	      1.01306886	      1.01288582	      1.08008607	      0.31845920	     -5.63787667	     61.26962289	      1.06935665	     -3.63778519	     -7.80371632	      0.00000000	     34.37581564	      3.66230974	     -2.80407482	     23.00921366	      0.40158654	      8.27899207	     -0.22677112	      0.00000000
      0.03333333	    -12.03591278	      0.19391647	      3.01820315	      2.10330369	      1.00799495	      1.01281156	      1.75375465	      0.17801749	     -5.43401644	     65.29434009	      1.13960122	     -3.47527432	     -7.47191040	      0.00000000	     34.48439935	      3.77038380	     -2.67535987	     25.82296324	      0.45069573	      7.75345922	     -1.22064928	      0.00000000
      0.04000000	    -11.93791423	      0.18048177	      3.32596132	      2.10166888	      1.00196408	      1.01262178	      3.01534185	      0.04479123	     -5.44854110	     69.35047849	      1.21039419	     -3.10816919	     -6.73047448	      0.00000000	     35.24914116	      3.81595772	     -2.49664476	     28.95367110	      0.50533689	      7.78829710	     -1.99324377	      0.00000000
      0.04666667	    -11.41777315	      0.30852259	      3.63504971	      2.10009488	      0.99653362	      1.01255188	      3.79328226	     -0.21779656	     -5.48617987	     73.17907698	      1.27721584	     -2.78317794	     -6.24964717	      0.00000000	     35.44644245	      3.95435221	     -2.37271009	     31.94318446	      0.55751374	      8.32350568	     -2.76195665	      0.00000000
      0.05333333	    -11.25438208	      0.35322697	      3.97178839	      2.09822490	      0.99055485	      1.01233858	      5.03344583	     -0.51183637	     -5.64680807	     76.96949609	      1.34337113	     -2.30664908	     -5.49734080	      0.00000000	     36.05223443	      4.04577410	     -2.21156537	     35.02024458	      0.61121857	      9.30824566	     -3.16638658	      0.00000000
      0.06000000	    -11.02585496	      0.49012473	      4.30631465	      2.09633460	      0.98487371	      1.01215189	      6.22337439	     -0.93315705	     -5.82639878	     80.59051759	      1.40656988	     -1.85068015	     -4.97197140	      0.00000000	     36.43177952	      4.20913879	     -2.10477243	     37.86659116	      0.66089669	     10.60993758	     -3.37616643	      0.00000000
      0.06666667	    -10.88630938	      0.62837138	      4.60968334	      2.09433757	      0.97935975	      1.01199014	      7.56267451	     -1.38872833	     -5.97730712	     84.05334948	      1.46700770	     -1.33395470	     -4.54959270	      0.00000000	     36.77301849	      4.36177155	     -2.01885588	     40.51274121	      0.70708072	     12.21865287	     -3.33037309	      0.00000000
      0.07333333	    -10.77916778	      0.82665750	      4.94823353	      2.09234151	      0.97425189	      1.01161885	      8.95765438	     -2.00733139	     -6.20484607	     87.32399730	      1.52409127	     -0.74622566	     -4.06058062	      0.00000000	     36.92934524	      4.66700992	     -1.77585837	     42.79569869	      0.74692585	     13.82661600	     -3.47467332	      0.00000000
      0.08000000	    -10.56604678	      1.12964316	      5.20417485	      2.09046255	      0.96992929	      1.01123810	     10.26208813	     -2.76393477	     -6.33563295	     90.34833895	      1.57687599	     -0.20346437	     -3.99891504	      0.00000000	     36.70304842	      5.05301215	     -1.56784100	     44.65285041	      0.77933926	     15.54684545	     -3.66616948	      0.00000000
      0.08666667	    -10.87046659	      1.25054184	      5.44921749	      2.08841002	      0.96538383	      1.01089297	     12.24510344	     -3.35429399	     -6.43007455	     93.22897291	      1.62715254	      0.40972961	     -3.53547439	      0.00000000	     36.94754626	      5.22178467	     -1.49621206	     46.37059903	      0.80931963	     17.11126202	     -3.24925962	      0.00000000
      0.09333333	    -10.96279892	      1.45407257	      5.62528333	      2.08655500	      0.96190826	      1.01048179	     14.01547272	     -4.04851982	     -6.45191897	     95.80072626	      1.67203810	      0.96373848	     -3.39776921	      0.00000000	     36.69314232	      5.46969635	     -1.39248247	     47.64272615	      0.83152244	     18.69808630	     -2.99949087	      0.00000000
      0.10000000	    -10.92142069	      1.69483440	      5.76949929	      2.08487179	      0.95942556	      1.01001941	     15.66605125	     -4.75773178	     -6.40686489	     98.05554395	      1.71139209	      1.43862027	     -3.40581739	      0.00000000	     36.05233751	      5.75740325	     -1.24797127	     48.50079134	      0.84649850	     20.15015618	     -2.86693880	      0.00000000
      0.10666667	    -11.13078677	      1.80224352	      5.81450610	      2.08322214	      0.95718814	      1.00967307	     17.68487744	     -5.33614618	     -6.29366817	    100.07434577	      1.74662683	      1.96492057	     -3.15573514	      0.00000000	     35.57968158	      5.82371753	     -1.25395214	     49.19556713	      0.85862462	     21.49768127	     -2.37290364	      0.00000000
      0.11333333	    -11.00784869	      1.95080333	      5.84869175	      2.08191415	      0.95625701	      1.00933921	     19.31526606	     -5.87839920	     -6.15304538	    101.68475336	      1.77473375	      2.32984582	     -3.25304750	      0.00000000	     34.51085035	      5.94137116	     -1.14306474	     49.47300271	      0.86346679	     22.71535110	     -2.21347780	      0.00000000
      0.12000000	    -11.13507573	      2.04381622	      5.80336260	      2.08057935	      0.95556265	      1.00906945	     21.30444432	     -6.33684815	     -5.92147638	    103.07245372	      1.79895369	      2.77192832	     -2.94644856	      0.00000000	     33.61000552	      5.93420753	     -1.20484619	     49.55321834	      0.86486681	     23.77722914	     -1.62720308	      0.00000000
      0.12666667	    -11.19043518	      2.06662064	      5.73209138	      2.07942576	      0.95563796	      1.00895645	     23.21104657	     -6.63985709	     -5.69565816	    104.09369806	      1.81677776	      3.16465544	     -2.69096441	      0.00000000	     32.50478982	      5.81967060	     -1.26344264	     49.38813951	      0.86198565	     24.73733309	     -1.04339056	      0.00000000
      0.13333333	    -11.20274107	      2.06726768	      5.63491418	      2.07844118	      0.95639368	      1.00892405	     25.05246733	     -6.84947891	     -5.45938943	    104.77358447	      1.82864402	      3.52685466	     -2.46987872	      0.00000000	     31.22488525	      5.67562365	     -1.30284632	     48.97962403	      0.85485571	     25.56801346	     -0.55647758	      0.00000000
      0.14000000	    -11.25555516	      2.02332120	      5.52802848	      2.07759855	      0.95768977	      1.00899203	     26.90800861	     -6.95173111	     -5.25000100	    105.12146746	      1.83471572	      3.88568889	     -2.16373901	      0.00000000	     29.87302780	      5.47211935	     -1.35557328	     48.32658417	      0.84345801	     26.20541489	     -0.03801247	      0.00000000
      0.14666667	    -11.35932833	      1.95874766	      5.40322195	      2.07689756	      0.95947856	      1.00912545	     28.77754783	     -6.97550228	     -5.04925585	    105.15864191	      1.83536454	      4.28371528	     -1.70768022	      0.00000000	     28.47103807	      5.22704042	     -1.46230402	     47.45979639	      0.82832971	     26.64686493	      0.62231125	      0.00000000
      0.15333333	    -11.50020131	      1.63160221	      5.45739213	      2.07636486	      0.96178154	      1.00917154	     30.53903930	     -6.78223636	     -5.21483535	    104.76213540	      1.82844419	      4.52904175	     -1.57130108	      0.00000000	     27.08249219	      4.82261431	     -1.25441321	     46.48696630	      0.81135062	     26.95191010	      0.89395948	      0.00000000
      0.16000000	    -11.62200664	      1.75044449	      5.13410101	      2.07602363	      0.96462100	      1.00958088	     32.34245497	     -6.80147766	     -4.79272896	    104.25261512	      1.81955139	      5.08112360	     -0.85844591	      0.00000000	     25.42344047	      4.66721183	     -1.66428692	     45.08799276	      0.78693393	     27.03538710	      1.84242038	      0.00000000
